<?xml version="1.0" encoding="utf-8" ?><svg xmlns="http://www.w3.org/2000/svg" xmlns:xlink="http://www.w3.org/1999/xlink" width="1024" height="1024" viewBox="0 0 1024 1024"><path fill="white" d="M0 0L1024 0L1024 1024L0 1024L0 0Z"/><path fill="#D3A04B" d="M490.865 185.128C497.981 171.573 508.091 163.311 524.558 167.192C534.63 169.566 539.979 176.606 544.908 185.046C552.597 185.404 557.908 186.811 564.656 190.286C576.431 183.224 586.726 180.535 599.162 189.314C604.663 193.197 609.871 201.689 610.695 208.334C623.006 211.324 626.521 215.093 634.384 224.435C651.454 223.764 657.201 226.704 666.673 240.533C685.48 234.415 695.966 238.307 707.762 254.038C731.581 246.218 744.123 264.092 744.026 285.609C752.409 289.676 758.78 296.635 761.653 305.555C763.309 310.698 767.113 323.317 773.669 323.135C786.888 317.569 803.32 326.921 807.597 339.892C809.048 344.291 809.635 346.541 810.31 351.213C827.173 356.087 830.32 369.36 829.947 384.786C843.288 391.125 849.126 397.423 848.52 412.814C865.307 414.93 904.493 419.373 918.666 431.575C921.988 434.435 921.379 452.91 920.567 458.161C920.649 477.406 918.978 493.145 915.95 511.994C904.232 586.71 869.36 655.865 816.25 709.709C785.987 740.179 750.558 765.039 711.611 783.133C706.174 785.646 695.477 790.572 689.96 792.235C689.962 851.113 656.954 847.563 609.271 847.558L554.945 847.533C499.671 847.508 442.873 848.29 387.719 847.598C386.452 847.581 385.185 847.555 383.918 847.521C382.504 847.764 380.59 847.645 379.141 847.541C362.169 846.322 345.87 837.509 338.221 821.846C333.809 812.812 335.106 804.02 335.741 794.353C269.876 769.226 212.921 725.167 172.052 667.729C162.455 654.446 150.058 634.974 143.179 620.094C141.038 616.997 134.601 602.763 132.945 598.897C116.084 559.699 106.81 517.66 105.616 475.007C105.415 467.298 105.841 459.459 106.141 451.756C106.334 446.82 108.32 440.821 107.587 436.018C111.382 422.759 159.454 414.832 172.399 413.336C172.866 412.761 172.716 413.071 172.882 412.258C174.616 403.772 176.34 396.436 183.494 390.781C186.464 388.433 189.473 386.255 192.204 383.626L192.685 383.155C194.061 367.867 196.321 360.565 211.265 353.343C214.697 343.417 220.182 327.852 231.309 323.998C237.985 321.686 246.624 323.254 253.543 321.32C255.928 320.653 257.154 319.651 259.116 318.258C264.517 299.355 263.747 297.955 278.947 285.966C284.08 262.299 293.068 254.539 317.635 253.824C329.177 237.068 340.808 235.465 359.409 240.519C362.219 235.69 365.769 229.644 370.094 226.037C377.571 219.8 388.353 221.743 395.956 214.753C398.253 212.641 400.156 210.488 402.058 208.012C407.638 200.748 415.257 200.219 423.791 199.452C434.969 176.719 452.283 171.246 472.72 187.69C473.382 187.236 474.062 186.81 474.76 186.413C479.92 183.451 485.275 183.646 490.865 185.128Z"/><path fill="#EFD9AE" d="M119.786 455.105C154.475 465.751 203.518 472.088 239.757 476.397C281.343 481.495 323.092 485.166 364.929 487.404C374.287 487.87 383.625 487.801 392.996 488.122C452.94 490.088 512.93 490.256 572.884 488.626C619.941 487.577 667.025 486.859 714 483.567C724.277 482.847 734.493 481.439 744.751 480.517C782.176 477.512 819.491 473.253 856.63 467.746C859.631 470.98 850.978 506.898 849.754 512.573C822.905 637.053 728.857 734.07 616.699 788.342C610.215 791.48 604.114 794.876 597.196 796.972C578.235 799.021 557.376 797.115 538.299 797.109C509.095 797.101 479.9 797.347 450.697 797.498C447.778 797.5 444.628 797.419 441.725 797.53C424.132 796.281 405.835 796.879 388.371 793.74C379.202 792.091 370.052 789.196 361.145 786.453C309.233 770.564 261.936 742.35 223.291 704.221C162.691 644.376 126 564.481 120.097 479.516C119.616 472.228 119.811 462.558 119.786 455.105Z"/><path fill="#F0EFED" d="M141.397 495.31C146.233 497.696 166.147 501.105 171.833 501.714C174.128 519.532 179.412 536.019 184.892 553.02C193.487 578.47 205.347 605.309 219.493 628.291C246.177 671.644 282.001 710.017 324.403 738.296C326.486 739.684 328.956 740.778 330.263 742.88C325.431 742.548 316.4 738.438 311.774 736.47C284.604 724.717 257.997 706.662 236.62 686.218C195.832 647.208 164.169 597.453 149.836 542.616C145.893 527.528 142.229 510.881 141.397 495.31Z"/><path fill="#F0EFED" d="M490.865 185.128C497.981 171.573 508.091 163.311 524.558 167.192C534.63 169.566 539.979 176.606 544.908 185.046C552.597 185.404 557.908 186.811 564.656 190.286C576.431 183.224 586.726 180.535 599.162 189.314C604.663 193.197 609.871 201.689 610.695 208.334C623.006 211.324 626.521 215.093 634.384 224.435C651.454 223.764 657.201 226.704 666.673 240.533C685.48 234.415 695.966 238.307 707.762 254.038C731.581 246.218 744.123 264.092 744.026 285.609C752.409 289.676 758.78 296.635 761.653 305.555C763.309 310.698 767.113 323.317 773.669 323.135C786.888 317.569 803.32 326.921 807.597 339.892C809.048 344.291 809.635 346.541 810.31 351.213C827.173 356.087 830.32 369.36 829.947 384.786C843.288 391.125 849.126 397.423 848.52 412.814C847.487 414.78 846.85 423.034 846.56 425.744L846.846 426.006C855.042 434.273 853.653 442.424 850.74 452.588C847.98 454.219 810.587 458.316 804.202 459.027C752.459 464.9 700.532 469.037 648.511 471.433C637.681 471.965 626.403 471.641 615.519 472.118C527.83 476.654 439.959 476.442 352.292 471.484C314.112 469.223 276.002 465.891 238.009 461.489C225.777 460.088 213.56 458.553 201.36 456.885C198.205 456.427 185.459 454.136 183.316 454.071C177.677 456.312 129.821 444.514 120.079 442.109L119.59 441.609C120.814 440.757 120.141 441.061 121.752 441.259C123.144 441.429 126.504 442.758 127.634 442.967C133.005 443.959 163.23 450.912 167.052 450.424C167.995 448.135 168.594 442.702 169.212 441.877C174.241 435.169 177.332 435.799 174.057 426.792C170.072 423.721 167.454 427.131 164.197 427.618C149.088 429.874 134.685 435.153 120.379 440.339C117.751 441.292 111.97 436.6 108.846 438.882C106.775 448.934 106.738 458.785 106.698 468.37C106.491 518.324 118.854 569.381 141.207 613.95C142.071 615.673 143.293 618.112 143.179 620.094C141.038 616.997 134.601 602.763 132.945 598.897C116.084 559.699 106.81 517.66 105.616 475.007C105.415 467.298 105.841 459.459 106.141 451.756C106.334 446.82 108.32 440.821 107.587 436.018C111.382 422.759 159.454 414.832 172.399 413.336C172.866 412.761 172.716 413.071 172.882 412.258C174.616 403.772 176.34 396.436 183.494 390.781C186.464 388.433 189.473 386.255 192.204 383.626L192.685 383.155C194.061 367.867 196.321 360.565 211.265 353.343C214.697 343.417 220.182 327.852 231.309 323.998C237.985 321.686 246.624 323.254 253.543 321.32C255.928 320.653 257.154 319.651 259.116 318.258C264.517 299.355 263.747 297.955 278.947 285.966C284.08 262.299 293.068 254.539 317.635 253.824C329.177 237.068 340.808 235.465 359.409 240.519C362.219 235.69 365.769 229.644 370.094 226.037C377.571 219.8 388.353 221.743 395.956 214.753C398.253 212.641 400.156 210.488 402.058 208.012C407.638 200.748 415.257 200.219 423.791 199.452C434.969 176.719 452.283 171.246 472.72 187.69C473.382 187.236 474.062 186.81 474.76 186.413C479.92 183.451 485.275 183.646 490.865 185.128Z"/><defs><linearGradient id="gradient_0" gradientUnits="userSpaceOnUse" x1="780.21344" y1="324.33633" x2="180.38136" y2="289.15384"><stop offset="0" stop-color="#C18B3B"/><stop offset="1" stop-color="#DDB874"/></linearGradient></defs><path fill="url(#gradient_0)" d="M490.865 185.128C497.981 171.573 508.091 163.311 524.558 167.192C534.63 169.566 539.979 176.606 544.908 185.046C552.597 185.404 557.908 186.811 564.656 190.286C576.431 183.224 586.726 180.535 599.162 189.314C604.663 193.197 609.871 201.689 610.695 208.334C623.006 211.324 626.521 215.093 634.384 224.435C651.454 223.764 657.201 226.704 666.673 240.533C685.48 234.415 695.966 238.307 707.762 254.038C731.581 246.218 744.123 264.092 744.026 285.609C752.409 289.676 758.78 296.635 761.653 305.555C763.309 310.698 767.113 323.317 773.669 323.135C773.545 325.522 773.314 325.7 775.928 326.38C775.43 328.792 774.026 328.534 773.982 331.163C775.684 335.464 778.442 334.138 780.74 336.98C780.957 337.079 781.174 337.178 781.391 337.278C776.004 338.979 772.706 341.044 767.798 343.767C763.948 338.593 760.492 333.306 755.839 328.926C754.292 327.471 747.117 323.141 747.222 322.427C747.652 319.508 747.774 309.885 747.268 306.27C741.061 298.228 735.285 299.474 727.658 294.376C727.236 294.095 726.862 291.842 727.089 291.087C729.135 284.268 732.916 279.653 728.209 272.606C726.26 269.687 723.846 267.107 720.21 266.304C713.277 264.771 703.263 276.841 698.429 270.387C694.613 265.294 693.498 253.309 685.513 252.007C675.027 250.297 670.167 258.21 661.871 260.945C660.627 261.355 658.399 259.107 657.527 258.041C653.806 253.49 653.421 240.167 646.576 239.587C638.954 238.94 632.625 240.682 624.547 239.573C622.422 233.33 620.34 229.842 615.951 224.888C614.097 224.335 612.818 224.056 610.709 223.591C607.77 222.858 597.747 223.998 596.524 220.812C595.301 217.625 596.22 212.561 595.556 208.507C594.297 200.817 584.897 195.676 577.842 198.693C572.79 200.853 569.36 209.653 562.34 207.813C557.034 206.522 557.215 198.49 550.643 198.228C546.95 197.571 534.478 207.279 532.649 201.222C530.554 194.285 532.037 184.438 523.293 181.408C515.405 178.674 507.349 181.54 504.704 189.677C503.496 193.394 503.775 199.347 500.918 201.357C495.175 202.868 488.796 196.011 482.469 198.039C477.228 199.718 475.245 209.047 469.022 206.673C462.779 201.931 463.505 197.356 455.267 192.575C439.361 192.05 438.012 200.982 435.783 214.428C429.418 214.171 421.534 213.613 415.348 214.657C408.92 219.403 408.833 223.806 407.047 231.416C396.421 241.926 389.559 227.642 377.508 238.242C371.625 243.416 371.865 257.113 362.919 258.018C353.259 256.734 347.015 244.659 334.949 255.751C330.696 259.662 327.517 265.787 323.571 269.683C309.492 269.072 294.314 266.373 294.434 285.819C294.463 290.561 295.215 293.757 296.379 298.313C289.935 299.343 283.488 299.94 279.297 305.643C274.735 311.852 276.275 319.981 278.527 326.688C268.502 329.467 266.489 330.349 261.28 339.521C261.056 339.917 260.833 340.315 260.613 340.715C252.64 338.779 247.765 337.638 239.476 337.027C222.488 344.602 233.171 361.126 224.004 364.185C202.766 371.272 208.459 376.621 209.471 394.132C202.536 396.04 194.39 398.575 190.448 405.125C185.96 412.581 189.228 419.814 192.11 427.049C179.253 431.747 169.414 435.337 168.174 451.415C172.169 452.101 179.858 453.166 183.316 454.071C177.677 456.312 129.821 444.514 120.079 442.109L119.59 441.609C120.814 440.757 120.141 441.061 121.752 441.259C123.144 441.429 126.504 442.758 127.634 442.967C133.005 443.959 163.23 450.912 167.052 450.424C167.995 448.135 168.594 442.702 169.212 441.877C174.241 435.169 177.332 435.799 174.057 426.792C170.072 423.721 167.454 427.131 164.197 427.618C149.088 429.874 134.685 435.153 120.379 440.339C117.751 441.292 111.97 436.6 108.846 438.882C106.775 448.934 106.738 458.785 106.698 468.37C106.491 518.324 118.854 569.381 141.207 613.95C142.071 615.673 143.293 618.112 143.179 620.094C141.038 616.997 134.601 602.763 132.945 598.897C116.084 559.699 106.81 517.66 105.616 475.007C105.415 467.298 105.841 459.459 106.141 451.756C106.334 446.82 108.32 440.821 107.587 436.018C111.382 422.759 159.454 414.832 172.399 413.336C172.866 412.761 172.716 413.071 172.882 412.258C174.616 403.772 176.34 396.436 183.494 390.781C186.464 388.433 189.473 386.255 192.204 383.626L192.685 383.155C194.061 367.867 196.321 360.565 211.265 353.343C214.697 343.417 220.182 327.852 231.309 323.998C237.985 321.686 246.624 323.254 253.543 321.32C255.928 320.653 257.154 319.651 259.116 318.258C264.517 299.355 263.747 297.955 278.947 285.966C284.08 262.299 293.068 254.539 317.635 253.824C329.177 237.068 340.808 235.465 359.409 240.519C362.219 235.69 365.769 229.644 370.094 226.037C377.571 219.8 388.353 221.743 395.956 214.753C398.253 212.641 400.156 210.488 402.058 208.012C407.638 200.748 415.257 200.219 423.791 199.452C434.969 176.719 452.283 171.246 472.72 187.69C473.382 187.236 474.062 186.81 474.76 186.413C479.92 183.451 485.275 183.646 490.865 185.128Z"/><path fill="#D3A04B" d="M107.587 436.018C111.382 422.759 159.454 414.832 172.399 413.336C172.2 416.911 172.456 420.496 173.163 424.006C165.748 426.707 154.276 428.373 146.398 430.623C136.978 433.314 128.243 436.536 119.08 439.949C116.77 439.07 108.663 436.598 107.587 436.018Z"/><path fill="#BA822E" d="M773.669 323.135C786.888 317.569 803.32 326.921 807.597 339.892C809.048 344.291 809.635 346.541 810.31 351.213C827.173 356.087 830.32 369.36 829.947 384.786C843.288 391.125 849.126 397.423 848.52 412.814C847.487 414.78 846.85 423.034 846.56 425.744C841.269 423.651 836.848 424.577 831.709 422.335C829.486 419.784 835.071 412.234 833.571 406.03C831.731 398.418 822.017 398.996 815.774 396.079C813.108 394.834 812.105 394.112 809.812 392.509C812.339 386.313 815.505 380.753 815.377 373.863C815.102 358.955 789.984 371.751 794.664 354.705C798.007 342.533 794.857 335.809 781.391 337.278C781.174 337.178 780.957 337.079 780.74 336.98C778.442 334.138 775.684 335.464 773.982 331.163C774.026 328.534 775.43 328.792 775.928 326.38C773.314 325.7 773.545 325.522 773.669 323.135Z"/><path fill="white" d="M298.367 357.699C304.339 356.956 308.763 358.061 314.069 360.55C314.057 364.069 313.897 365.413 313.345 368.883C291.51 373.507 291.556 367.827 284.343 391.447C275.594 406.604 267.007 378.601 276.73 369.515C284.251 362.488 287.501 359.005 298.367 357.699Z"/><path fill="white" d="M448.557 381.702C452.564 381.546 455.564 382.195 459.51 382.852C459.772 386.077 459.761 388.118 459.684 391.357C454.738 394.086 443.224 397.522 436.747 400.376C433.726 405.783 432.683 414.056 430.441 416.784C425.27 419.986 424.31 418.259 419.977 414.93C419.103 406.505 419.362 401.113 424.799 394.219C431.292 385.986 438.477 382.953 448.557 381.702Z"/><path fill="white" d="M531.568 394.25C543.451 393.587 555.514 395.063 562.241 406.617C566.07 413.195 569.553 420.743 561.115 425.161C557.752 426.444 557.713 426.063 555.343 422.849C553.956 420.967 551.557 416.442 550.026 414.906C544.901 409.764 535.09 408.021 528.276 405.252L527.762 405.039C527.399 401.721 525.983 398.467 527.409 395.595C529.335 394.166 528.87 394.61 531.568 394.25Z"/><path fill="white" d="M732.201 394.486C736.081 394.067 746.061 395.723 749.79 397.199C755.82 399.585 764.013 409.864 766.665 415.837C768.098 419.064 768.575 420.986 767.411 424.18C765.924 425.289 765.122 425.026 762.97 425.312C755.636 426.266 754.521 420.249 750.048 415.808C743.347 409.155 736.966 408.2 728.016 407.883C727.647 403.863 727.548 401.028 727.541 396.981C729.049 396.111 730.656 395.299 732.201 394.486Z"/><path fill="white" d="M367.979 402.226C371.153 402.109 374.451 402.88 377.506 403.649C377.954 407.402 377.829 408.713 377.252 412.295C369.488 416.954 359.937 415.797 354.65 424.925C352.623 428.425 351.954 432.602 349.585 435.804C347.53 436.698 344.107 437.165 342.347 435.803C336.324 431.143 340.623 419.705 344.071 415.338C350.854 406.748 357.558 403.663 367.979 402.226Z"/><path fill="white" d="M659.583 312.707C693.706 311.31 698.882 342.405 681.975 335.797C671.839 327.224 666.715 326.53 653.369 326.873C651.987 326.908 649.728 327.153 648.588 326.553C647.417 323.843 648.108 319.671 648.412 316.646C652.58 314.014 654.887 313.369 659.583 312.707Z"/><path fill="white" d="M413.591 298.02C416.861 297.922 423.111 299.476 424.519 302.524C428.445 311.026 416.864 312.209 412.776 313.527C405.397 315.907 401.404 324.795 398.501 330.967C395.009 335.04 390.694 332.654 389.344 328.54C386.293 319.245 393.686 307.842 401.43 303.04C405.13 300.746 409.573 299.392 413.591 298.02Z"/><path fill="white" d="M543.539 268.111C547.919 267.778 555.481 267.395 560.001 269.508C567.982 273.239 578.488 278.58 577.369 289.256C577.011 292.668 573.938 294.9 570.888 296.736C568.378 294.272 565.417 290.747 562.79 288.111C554.777 280.07 547.341 281.06 537.266 279.328C536.174 271.771 535.134 269.595 543.539 268.111Z"/><path fill="#DFBC7E" d="M906.043 456.468C905.994 458.569 906.051 460.663 906.087 462.764C905.25 620.469 784.704 764.943 628.756 793.344C618.924 795.134 607.217 796.759 597.196 796.972C604.114 794.876 610.215 791.48 616.699 788.342C728.857 734.07 822.905 637.053 849.754 512.573C850.978 506.898 859.631 470.98 856.63 467.746C858.506 466.962 868.832 464.911 871.058 464.422C882.758 461.854 894.565 460.033 906.043 456.468Z"/><path fill="#BA822E" d="M906.59 456.751C914.729 451.78 914.793 450.371 920.469 443.839C920.382 448.491 920.157 453.561 920.567 458.161C920.649 477.406 918.978 493.145 915.95 511.994C904.232 586.71 869.36 655.865 816.25 709.709C785.987 740.179 750.558 765.039 711.611 783.133C706.174 785.646 695.477 790.572 689.96 792.235C689.962 851.113 656.954 847.563 609.271 847.558L554.945 847.533C499.671 847.508 442.873 848.29 387.719 847.598C386.452 847.581 385.185 847.555 383.918 847.521C388.537 846.045 420.797 846.988 428.332 846.994L534.447 847.045C539.085 847.049 551.932 846.24 555.676 846.962L555.728 846.319C554.221 845.446 537.704 844.536 535.164 844.816C534.168 844.926 534.63 845.04 533.814 844.552C534.58 843.159 540.552 841.775 542.356 841.767L542.363 841.017L541.522 840.381C538.362 840.434 538.386 840.797 537.221 837.932C538.261 836.019 538.825 838.209 540.665 835.78C539.081 834.535 539.972 834.85 537.86 834.918L537.941 834.399L538.05 834.897C538.139 833.862 537.969 834.336 538.563 833.477C540.04 833.335 540.266 833.503 541.447 832.779C540.111 832.188 405.227 833.067 390.514 832.9C396.79 832.104 406.025 833.284 411.884 832.078C394.304 830.023 371.917 837.123 357.681 822.403C350.818 815.306 351.784 807.438 352.021 798.522C374.289 808.546 404.084 814.243 428.391 811.994C430.919 811.145 463.498 811.53 468.161 811.496C507.412 811.21 546.926 812.041 586.16 811.119C591.564 810.992 601.906 812.394 606.172 811.29L606.126 810.821C605.266 810.675 604.434 810.555 603.572 810.43C603.361 809.882 603.151 809.335 602.94 808.788C601.439 808.744 601.265 808.746 599.814 808.403L599.166 807.346C599.697 804.156 601.881 801.407 603.664 798.594C604.801 796.801 604.118 800.172 605.951 797.289C606.592 797.444 580.697 798.763 578.562 798.767L471.544 798.211C462.095 798.237 451.557 797.842 442.278 798.119L441.725 797.53C444.628 797.419 447.778 797.5 450.697 797.498C479.9 797.347 509.095 797.101 538.299 797.109C557.376 797.115 578.235 799.021 597.196 796.972C607.217 796.759 618.924 795.134 628.756 793.344C784.704 764.943 905.25 620.469 906.087 462.764C906.377 460.933 906.461 458.639 906.59 456.751Z"/><path fill="#EFD9AE" d="M352.021 798.522C374.289 808.546 404.084 814.243 428.391 811.994C455.475 812.207 482.559 812.258 509.643 812.148L612.268 811.992C614.643 812.098 616.967 812.213 619.348 812.234C618.607 820.96 617.592 823.875 614.109 831.974L411.884 832.078C394.304 830.023 371.917 837.123 357.681 822.403C350.818 815.306 351.784 807.438 352.021 798.522Z"/><path fill="#DFBC7E" d="M612.268 811.992L612.969 811.853C618.749 810.737 624.529 810.621 630.286 809.563C645.554 806.756 659.89 802.695 674.51 797.612C674.246 807.151 673.939 816.939 666.28 824.026C655.402 834.092 628.968 832.004 614.109 831.974C617.592 823.875 618.607 820.96 619.348 812.234C616.967 812.213 614.643 812.098 612.268 811.992Z"/><path fill="#BA822E" d="M846.846 426.006C862.361 429.314 879.16 431.17 894.834 435.082C898.869 436.089 906.746 437.372 910.322 438.992C901.592 441.672 890.067 445.819 881.367 447.338C877.16 448.073 852.87 453.31 850.74 452.588C853.653 442.424 855.042 434.273 846.846 426.006Z"/><path fill="#BA822E" d="M581.564 807.282C583.721 807.042 588.852 806.866 589.939 809.052L589.125 809.845C586.922 810.609 584.75 810.318 582.375 810.244C580.157 809.964 576.878 810.167 575.268 809.153L575.476 808.339C577.337 807.157 579.422 808.247 581.564 807.282Z"/></svg>